<svg width="30" height="30" viewBox="0 0 30 30" fill="none" xmlns="http://www.w3.org/2000/svg">
<path d="M17.5 4.08625C17.5 3.21 16.79 2.5 15.9137 2.5H14.0875C13.21 2.5 12.5 3.21 12.5 4.08625C12.5 4.80875 12.005 5.42875 11.3312 5.69375C11.225 5.73625 11.1188 5.78125 11.015 5.82625C10.3513 6.11375 9.5625 6.02625 9.05 5.515C8.75255 5.21776 8.34925 5.0508 7.92875 5.0508C7.50825 5.0508 7.10495 5.21776 6.8075 5.515L5.515 6.8075C5.21776 7.10495 5.0508 7.50825 5.0508 7.92875C5.0508 8.34925 5.21776 8.75255 5.515 9.05C6.0275 9.5625 6.115 10.35 5.825 11.015C5.77944 11.1197 5.73568 11.2251 5.69375 11.3312C5.42875 12.005 4.80875 12.5 4.08625 12.5C3.21 12.5 2.5 13.21 2.5 14.0863V15.9137C2.5 16.79 3.21 17.5 4.08625 17.5C4.80875 17.5 5.42875 17.995 5.69375 18.6688C5.73625 18.775 5.78125 18.8812 5.825 18.985C6.11375 19.6487 6.02625 20.4375 5.515 20.95C5.21776 21.2474 5.0508 21.6507 5.0508 22.0712C5.0508 22.4918 5.21776 22.8951 5.515 23.1925L6.8075 24.485C7.10495 24.7822 7.50825 24.9492 7.92875 24.9492C8.34925 24.9492 8.75255 24.7822 9.05 24.485C9.5625 23.9725 10.35 23.885 11.015 24.1738C11.1188 24.22 11.225 24.2637 11.3312 24.3062C12.005 24.5712 12.5 25.1913 12.5 25.9138C12.5 26.79 13.21 27.5 14.0863 27.5H15.9137C16.79 27.5 17.5 26.79 17.5 25.9138C17.5 25.1913 17.995 24.5713 18.6688 24.305C18.775 24.2638 18.8812 24.22 18.985 24.175C19.6487 23.885 20.4375 23.9737 20.9488 24.485C21.0961 24.6324 21.2709 24.7493 21.4634 24.829C21.6559 24.9088 21.8623 24.9498 22.0706 24.9498C22.279 24.9498 22.4853 24.9088 22.6778 24.829C22.8703 24.7493 23.0452 24.6324 23.1925 24.485L24.485 23.1925C24.7822 22.8951 24.9492 22.4918 24.9492 22.0712C24.9492 21.6507 24.7822 21.2474 24.485 20.95C23.9725 20.4375 23.885 19.65 24.1738 18.985C24.22 18.8812 24.2637 18.775 24.3062 18.6688C24.5712 17.995 25.1913 17.5 25.9138 17.5C26.79 17.5 27.5 16.79 27.5 15.9137V14.0875C27.5 13.2113 26.79 12.5013 25.9138 12.5013C25.1913 12.5013 24.5713 12.0062 24.305 11.3325C24.2631 11.2263 24.2194 11.1209 24.1738 11.0162C23.8863 10.3525 23.9737 9.56375 24.485 9.05125C24.7822 8.7538 24.9492 8.3505 24.9492 7.93C24.9492 7.5095 24.7822 7.1062 24.485 6.80875L23.1925 5.51625C22.8951 5.21901 22.4918 5.05205 22.0712 5.05205C21.6507 5.05205 21.2474 5.21901 20.95 5.51625C20.4375 6.02875 19.65 6.11625 18.985 5.8275C18.8804 5.78151 18.7749 5.73734 18.6688 5.695C17.995 5.42875 17.5 4.80875 17.5 4.0875V4.08625Z" stroke="#1163E2" stroke-width="2"/>
<path d="M20 15C20 16.3261 19.4732 17.5979 18.5355 18.5355C17.5979 19.4732 16.3261 20 15 20C13.6739 20 12.4021 19.4732 11.4645 18.5355C10.5268 17.5979 10 16.3261 10 15C10 13.6739 10.5268 12.4021 11.4645 11.4645C12.4021 10.5268 13.6739 10 15 10C16.3261 10 17.5979 10.5268 18.5355 11.4645C19.4732 12.4021 20 13.6739 20 15V15Z" stroke="#1163E2" stroke-width="2"/>
</svg>
