<svg width="29" height="29" viewBox="0 0 29 29" fill="none" xmlns="http://www.w3.org/2000/svg">
<path d="M18.125 24.4688C18.125 24.7091 18.2205 24.9396 18.3904 25.1096C18.5604 25.2795 18.7909 25.375 19.0312 25.375H20.8438C21.0841 25.375 21.3146 25.2795 21.4846 25.1096C21.6545 24.9396 21.75 24.7091 21.75 24.4688V13.5938C21.75 13.3534 21.6545 13.1229 21.4846 12.9529C21.3146 12.783 21.0841 12.6875 20.8438 12.6875H19.0312C18.7909 12.6875 18.5604 12.783 18.3904 12.9529C18.2205 13.1229 18.125 13.3534 18.125 13.5938V24.4688ZM13.5938 25.375C13.3534 25.375 13.1229 25.2795 12.9529 25.1096C12.783 24.9396 12.6875 24.7091 12.6875 24.4688V17.2188C12.6875 16.9784 12.783 16.7479 12.9529 16.5779C13.1229 16.408 13.3534 16.3125 13.5938 16.3125H15.4062C15.6466 16.3125 15.8771 16.408 16.0471 16.5779C16.217 16.7479 16.3125 16.9784 16.3125 17.2188V24.4688C16.3125 24.7091 16.217 24.9396 16.0471 25.1096C15.8771 25.2795 15.6466 25.375 15.4062 25.375H13.5938ZM8.15625 25.375C7.9159 25.375 7.68539 25.2795 7.51543 25.1096C7.34548 24.9396 7.25 24.7091 7.25 24.4688V20.8438C7.25 20.6034 7.34548 20.3729 7.51543 20.2029C7.68539 20.033 7.9159 19.9375 8.15625 19.9375H9.96875C10.2091 19.9375 10.4396 20.033 10.6096 20.2029C10.7795 20.3729 10.875 20.6034 10.875 20.8438V24.4688C10.875 24.7091 10.7795 24.9396 10.6096 25.1096C10.4396 25.2795 10.2091 25.375 9.96875 25.375H8.15625Z" fill="#1163E2"/>
<path d="M25.375 25.375V8.15625L17.2188 0H7.25C6.28859 0 5.36656 0.381919 4.68674 1.06174C4.00692 1.74156 3.625 2.66359 3.625 3.625V25.375C3.625 26.3364 4.00692 27.2584 4.68674 27.9383C5.36656 28.6181 6.28859 29 7.25 29H21.75C22.7114 29 23.6334 28.6181 24.3133 27.9383C24.9931 27.2584 25.375 26.3364 25.375 25.375ZM17.2188 5.4375C17.2188 6.15856 17.5052 6.85008 18.0151 7.35995C18.5249 7.86981 19.2164 8.15625 19.9375 8.15625H23.5625V25.375C23.5625 25.8557 23.3715 26.3167 23.0316 26.6566C22.6917 26.9965 22.2307 27.1875 21.75 27.1875H7.25C6.7693 27.1875 6.30828 26.9965 5.96837 26.6566C5.62846 26.3167 5.4375 25.8557 5.4375 25.375V3.625C5.4375 3.1443 5.62846 2.68328 5.96837 2.34337C6.30828 2.00346 6.7693 1.8125 7.25 1.8125H17.2188V5.4375Z" fill="#1163E2"/>
</svg>
