<svg width="32" height="32" viewBox="0 0 32 32" fill="none" xmlns="http://www.w3.org/2000/svg">
<path d="M2 27.9999H30V29.9999H2V27.9999ZM27 10.9999C27.2652 10.9999 27.5196 10.8946 27.7071 10.707C27.8946 10.5195 28 10.2652 28 9.99994V6.99994C27.9999 6.79443 27.9365 6.59393 27.8184 6.42574C27.7003 6.25754 27.5333 6.12982 27.34 6.05994L16.34 2.05994C16.1203 1.98051 15.8797 1.98051 15.66 2.05994L4.66 6.05994C4.46673 6.12982 4.29968 6.25754 4.18159 6.42574C4.06349 6.59393 4.00009 6.79443 4 6.99994V9.99994C4 10.2652 4.10536 10.5195 4.29289 10.707C4.48043 10.8946 4.73478 10.9999 5 10.9999H6V23.9999H4V25.9999H28V23.9999H26V10.9999H27ZM6 7.69994L16 4.05994L26 7.69994V8.99994H6V7.69994ZM18 23.9999H14V10.9999H18V23.9999ZM8 10.9999H12V23.9999H8V10.9999ZM24 23.9999H20V10.9999H24V23.9999Z" fill="#1163E2"/>
</svg>
