<svg width="45" height="45" viewBox="0 0 45 45" fill="none" xmlns="http://www.w3.org/2000/svg">
<path fill-rule="evenodd" clip-rule="evenodd" d="M29.2131 8.88155C23.1287 6.4478 15.7695 7.85288 11.5226 12.5305L11.5222 12.531C9.42393 14.841 8.10792 17.754 7.76156 20.8554C7.4152 23.9567 8.05613 27.0883 9.59309 29.8042C11.1301 32.5201 13.4847 34.6819 16.3218 35.9818C19.1588 37.2816 22.3336 37.6532 25.3942 37.0437L25.3949 37.0436C31.5107 35.8274 36.1425 30.2657 37.3816 24.0702C37.6794 22.5809 39.1282 21.615 40.6175 21.9129C42.1068 22.2108 43.0726 23.6595 42.7748 25.1488C41.2014 33.0158 35.2301 40.6954 26.4677 42.4379C22.2722 43.2733 17.92 42.7638 14.0309 40.9819C10.1415 39.2 6.91348 36.2364 4.80642 32.5131C2.69937 28.7898 1.82071 24.4966 2.29554 20.2449C2.77035 15.9934 4.57432 12.0001 7.45058 8.83346M7.45105 8.83295C13.408 2.27227 23.2778 0.58377 31.2558 3.77493C32.6659 4.33899 33.3518 5.93941 32.7877 7.34957C32.2237 8.75972 30.6233 9.44562 29.2131 8.88155" fill="#0263F2"/>
<path fill-rule="evenodd" clip-rule="evenodd" d="M41.9434 8.52618C43.0594 9.55634 43.129 11.2962 42.0988 12.4122L25.2238 30.6934C24.7162 31.2433 24.0064 31.5626 23.2581 31.5776C22.5098 31.5925 21.7878 31.3019 21.2586 30.7727L14.2273 23.7414C13.1534 22.6675 13.1534 20.9263 14.2273 19.8523C15.3013 18.7784 17.0425 18.7784 18.1164 19.8523L23.1238 24.8597L38.0574 8.68162C39.0876 7.56561 40.8274 7.49602 41.9434 8.52618Z" fill="#0263F2"/>
</svg>
