<svg width="28" height="28" viewBox="0 0 28 28" fill="none" xmlns="http://www.w3.org/2000/svg">
<path d="M5.33757 5.33757C5.66574 5.0095 6.11078 4.8252 6.57482 4.8252C7.03886 4.8252 7.4839 5.0095 7.81207 5.33757L14.0001 11.5256L20.1881 5.33757C20.5181 5.01879 20.9602 4.8424 21.419 4.84639C21.8779 4.85038 22.3168 5.03442 22.6413 5.35889C22.9657 5.68335 23.1498 6.12228 23.1538 6.58112C23.1577 7.03996 22.9813 7.48202 22.6626 7.81207L16.4746 14.0001L22.6626 20.1881C22.9813 20.5181 23.1577 20.9602 23.1538 21.419C23.1498 21.8779 22.9657 22.3168 22.6413 22.6413C22.3168 22.9657 21.8779 23.1498 21.419 23.1538C20.9602 23.1577 20.5181 22.9813 20.1881 22.6626L14.0001 16.4746L7.81207 22.6626C7.48202 22.9813 7.03996 23.1577 6.58112 23.1538C6.12228 23.1498 5.68335 22.9657 5.35889 22.6413C5.03442 22.3168 4.85038 21.8779 4.84639 21.419C4.8424 20.9602 5.01879 20.5181 5.33757 20.1881L11.5256 14.0001L5.33757 7.81207C5.0095 7.4839 4.8252 7.03886 4.8252 6.57482C4.8252 6.11078 5.0095 5.66574 5.33757 5.33757V5.33757Z" fill="black"/>
</svg>
