<svg width="47" height="42" viewBox="0 0 47 42" fill="none" xmlns="http://www.w3.org/2000/svg">
<g clip-path="url(#clip0_5_394)">
<path d="M23.5 21C27.8247 21 31.3333 17.5465 31.3333 13.2891C31.3333 10.0078 26.6741 3.38792 24.5444 0.525024C24.0222 -0.172241 22.9778 -0.172241 22.4556 0.525024C20.3259 3.38792 15.6667 10.0078 15.6667 13.2891C15.6667 17.5465 19.1753 21 23.5 21ZM46.1269 26.9145C45.1641 26.0367 43.6627 26.0942 42.6509 26.9145L35.1113 32.9766C34.1892 33.7231 33.0387 34.125 31.8474 34.125H22.1944C21.4764 34.125 20.8889 33.5344 20.8889 32.8125C20.8889 32.0906 21.4764 31.5 22.1944 31.5H28.5835C29.8809 31.5 31.0885 30.6059 31.3007 29.318C31.57 27.6774 30.3134 26.25 28.7222 26.25H15.6667C13.4635 26.25 11.3339 27.0129 9.62031 28.4074L5.82604 31.5H1.30556C0.5875 31.5 0 32.0906 0 32.8125V40.6875C0 41.4094 0.5875 42 1.30556 42H30.4194C31.6026 42 32.7531 41.5981 33.6833 40.8516L46.0208 30.9258C47.2611 29.9332 47.359 28.0301 46.1269 26.9145Z" fill="#39DA8A"/>
</g>
<defs>
<clipPath id="clip0_5_394">
<rect width="47" height="42" fill="white"/>
</clipPath>
</defs>
</svg>
