<svg width="19" height="26" viewBox="0 0 19 26" fill="none" xmlns="http://www.w3.org/2000/svg">
<path d="M15.8333 5.6875V7.3125C15.8333 7.75938 15.4771 8.125 15.0417 8.125C14.6063 8.125 14.25 7.75938 14.25 7.3125V5.6875C14.25 5.24062 14.6063 4.875 15.0417 4.875C15.4771 4.875 15.8333 5.24062 15.8333 5.6875ZM16.625 0C17.9362 0 19 1.09129 19 2.4375V23.5625C19 24.9082 17.9362 26 16.625 26H11.875V21.9375C11.875 20.5918 10.8112 19.5 9.5 19.5C8.1888 19.5 7.125 20.5918 7.125 21.9375V26H2.375C1.06331 26 0 24.9082 0 23.5625V2.4375C0 1.09129 1.06331 0 2.375 0H16.625ZM3.16667 13.8125C3.16667 14.2594 3.52094 14.625 3.95833 14.625H5.54167C5.97708 14.625 6.33333 14.2594 6.33333 13.8125V12.1875C6.33333 11.7406 5.97708 11.375 5.54167 11.375H3.95833C3.52094 11.375 3.16667 11.7406 3.16667 12.1875V13.8125ZM8.70833 11.375C8.27292 11.375 7.91667 11.7406 7.91667 12.1875V13.8125C7.91667 14.2594 8.27292 14.625 8.70833 14.625H10.2917C10.7271 14.625 11.0833 14.2594 11.0833 13.8125V12.1875C11.0833 11.7406 10.7271 11.375 10.2917 11.375H8.70833ZM12.6667 13.8125C12.6667 14.2594 13.0229 14.625 13.4583 14.625H15.0417C15.4771 14.625 15.8333 14.2594 15.8333 13.8125V12.1875C15.8333 11.7406 15.4771 11.375 15.0417 11.375H13.4583C13.0229 11.375 12.6667 11.7406 12.6667 12.1875V13.8125ZM8.3125 3.25C7.87708 3.25 7.52083 3.61359 7.52083 4.0625V8.53125C7.52083 9.20664 8.05026 9.75 8.70833 9.75H10.2917C10.9497 9.75 11.4792 9.20664 11.4792 8.53125V7.3125C11.4792 6.86562 11.1229 6.5 10.6875 6.5C10.2521 6.5 9.89583 6.86562 9.89583 7.3125V8.125H9.10417V4.875H10.6875C11.1229 4.875 11.4792 4.51141 11.4792 4.0625C11.4792 3.61359 11.1229 3.25 10.6875 3.25H8.3125ZM12.6667 7.3125C12.6667 8.6582 13.7305 9.75 15.0417 9.75C16.3529 9.75 17.4167 8.6582 17.4167 7.3125V5.6875C17.4167 4.34129 16.3529 3.25 15.0417 3.25C13.7305 3.25 12.6667 4.34129 12.6667 5.6875V7.3125ZM3.03357 3.61156C2.93929 3.46651 2.80203 3.35644 2.64208 3.29763C2.48213 3.23883 2.308 3.23442 2.14542 3.28504C1.98286 3.33559 1.84045 3.43847 1.73923 3.57847C1.63802 3.71847 1.58336 3.88817 1.58333 4.0625V8.9375C1.58333 9.38438 1.9376 9.75 2.375 9.75C2.8124 9.75 3.16667 9.38438 3.16667 8.9375V6.74375L4.8831 9.38945C5.07656 9.68398 5.43776 9.82109 5.76927 9.71445C6.10573 9.61289 6.33333 9.29805 6.33333 8.9375V4.0625C6.33333 3.61359 5.97708 3.25 5.54167 3.25C5.10625 3.25 4.75 3.61359 4.75 4.0625V6.25625L3.03357 3.61156Z" fill="#1163E2"/>
</svg>
