<svg width="34" height="34" viewBox="0 0 34 34" fill="none" xmlns="http://www.w3.org/2000/svg">
<path d="M19.125 2.83331C17.6862 2.8328 16.2754 3.23067 15.0489 3.98283C13.8224 4.73498 12.8281 5.81204 12.1763 7.09465C13.729 7.17077 15.2421 7.61116 16.5932 8.38022C17.9443 9.14929 19.0955 10.2255 19.9537 11.5217C20.6054 11.3985 21.2755 11.3333 21.9583 11.3333H26.8855C26.9053 11.0996 26.9167 10.8644 26.9167 10.625V4.87331C26.9167 4.33227 26.7017 3.81339 26.3192 3.43082C25.9366 3.04824 25.4177 2.83331 24.8767 2.83331H19.125ZM11.9368 25.4957C10.8001 25.5291 9.66833 25.334 8.60839 24.9221C7.54845 24.5101 6.58195 23.8897 5.76611 23.0975C4.95028 22.3053 4.30169 21.3575 3.85877 20.3101C3.41584 19.2627 3.18758 18.1372 3.1875 17V10.6448C3.1875 9.46048 4.148 8.49998 5.33233 8.49998H11.6875C14.4727 8.49998 16.9462 9.84015 18.496 11.9099C16.1783 12.7112 14.2079 14.2873 12.9172 16.3724L10.6675 14.1241C10.4661 13.9365 10.1997 13.8343 9.92443 13.8391C9.64917 13.844 9.38654 13.9555 9.19187 14.1502C8.9972 14.3449 8.88569 14.6075 8.88084 14.8827C8.87598 15.158 8.97815 15.4244 9.16583 15.6258L11.9425 18.4025C11.5379 19.5443 11.3319 20.7469 11.3333 21.9583C11.3333 23.1993 11.5458 24.3893 11.9368 25.4957ZM12.75 21.9583C12.75 19.5161 13.7202 17.1739 15.4471 15.447C17.174 13.7201 19.5161 12.75 21.9583 12.75H28.9198C30.1608 12.75 31.1667 13.7558 31.1667 14.9968V21.9583C31.1667 23.6889 30.679 25.3845 29.7595 26.8507C28.8401 28.3168 27.526 29.4942 25.9681 30.2478C24.4102 31.0014 22.6714 31.3007 20.9512 31.1115C19.231 30.9222 17.5989 30.252 16.2421 29.1776L14.5633 30.855C14.4661 30.9594 14.3488 31.0431 14.2184 31.1012C14.0881 31.1592 13.9474 31.1905 13.8047 31.193C13.6621 31.1955 13.5204 31.1693 13.3881 31.1158C13.2558 31.0624 13.1356 30.9828 13.0347 30.8819C12.9338 30.7811 12.8543 30.6609 12.8008 30.5286C12.7474 30.3963 12.7211 30.2546 12.7237 30.1119C12.7262 29.9692 12.7574 29.8285 12.8155 29.6982C12.8735 29.5679 12.9573 29.4506 13.0617 29.3533L14.739 27.6746C13.4482 26.0492 12.747 24.0339 12.75 21.9583V21.9583ZM17.2507 28.1676L23.7717 21.6466C23.8761 21.5494 23.9598 21.4321 24.0179 21.3017C24.0759 21.1714 24.1072 21.0307 24.1097 20.8881C24.1122 20.7454 24.0859 20.6037 24.0325 20.4714C23.9791 20.3391 23.8995 20.2189 23.7986 20.118C23.6977 20.0171 23.5776 19.9376 23.4453 19.8841C23.313 19.8307 23.1713 19.8045 23.0286 19.807C22.8859 19.8095 22.7452 19.8407 22.6149 19.8988C22.4846 19.9569 22.3673 20.0406 22.27 20.145L15.7491 26.6659C16.1783 27.2326 16.6841 27.7383 17.2507 28.1676V28.1676Z" fill="#39DA8A"/>
</svg>
