<svg width="34" height="34" viewBox="0 0 34 34" fill="none" xmlns="http://www.w3.org/2000/svg">
<path d="M29.7501 4.25H4.25008C2.69175 4.25 1.41675 5.525 1.41675 7.08333V11.3333H4.25008V7.08333H29.7501V26.9167H19.8334V29.75H29.7501C31.3084 29.75 32.5834 28.475 32.5834 26.9167V7.08333C32.5834 5.525 31.3084 4.25 29.7501 4.25ZM1.41675 25.5V29.75H5.66675C5.66675 27.3983 3.76841 25.5 1.41675 25.5ZM1.41675 19.8333V22.6667C5.32675 22.6667 8.50008 25.84 8.50008 29.75H11.3334C11.3334 24.2675 6.89925 19.8333 1.41675 19.8333ZM1.41675 14.1667V17C3.0911 17 4.74906 17.3298 6.29596 17.9705C7.84286 18.6113 9.24841 19.5504 10.4324 20.7344C11.6163 21.9183 12.5555 23.3239 13.1962 24.8708C13.837 26.4177 14.1667 28.0756 14.1667 29.75H17.0001C17.0001 21.1367 10.0159 14.1667 1.41675 14.1667ZM15.5834 15.7108V18.5442L20.5417 21.25L25.5001 18.5442V15.7108L20.5417 18.4167L15.5834 15.7108ZM20.5417 8.5L12.7501 12.75L20.5417 17L28.3334 12.75L20.5417 8.5Z" fill="#39DA8A"/>
</svg>
