<svg width="33" height="43" viewBox="0 0 33 43" fill="none" xmlns="http://www.w3.org/2000/svg">
<path d="M16.5 28.414C17.3275 28.414 18.0306 28.1256 18.6092 27.5488C19.1892 26.9733 19.4791 26.274 19.4791 25.4509V23.4754H21.4653C22.2928 23.4754 22.9959 23.187 23.5745 22.6102C24.1544 22.0347 24.4444 21.3354 24.4444 20.5123C24.4444 19.6892 24.1544 18.9899 23.5745 18.4144C22.9959 17.8376 22.2928 17.5492 21.4653 17.5492H19.4791V15.5737C19.4791 14.7506 19.1892 14.0513 18.6092 13.4758C18.0306 12.899 17.3275 12.6106 16.5 12.6106C15.6724 12.6106 14.9693 12.899 14.3907 13.4758C13.8108 14.0513 13.5208 14.7506 13.5208 15.5737V17.5492H11.5347C10.7071 17.5492 10.0041 17.8376 9.42544 18.4144C8.8455 18.9899 8.55553 19.6892 8.55553 20.5123C8.55553 21.3354 8.8455 22.0347 9.42544 22.6102C10.0041 23.187 10.7071 23.4754 11.5347 23.4754H13.5208V25.4509C13.5208 26.274 13.8108 26.9733 14.3907 27.5488C14.9693 28.1256 15.6724 28.414 16.5 28.414ZM16.5 41.1061H16.0034C15.8379 41.1061 15.689 41.0732 15.5566 41.0074C11.2202 39.6575 7.64523 36.9821 4.83157 32.9812C2.01791 28.9816 0.611084 24.5619 0.611084 19.7221V10.3882C0.611084 9.56514 0.851403 8.82435 1.33204 8.16588C1.81136 7.5074 2.43169 7.03001 3.19303 6.73369L15.1097 2.28898C15.5731 2.12436 16.0365 2.04205 16.5 2.04205C16.9634 2.04205 17.4268 2.12436 17.8903 2.28898L29.8069 6.73369C30.5683 7.03001 31.1893 7.5074 31.6699 8.16588C32.1492 8.82435 32.3889 9.56514 32.3889 10.3882V19.7221C32.3889 24.5619 30.982 28.9816 28.1684 32.9812C25.3547 36.9821 21.7797 39.6575 17.4434 41.0074C17.2779 41.0732 16.9634 41.1061 16.5 41.1061V41.1061Z" fill="#39DA8A"/>
</svg>
