<svg width="43" height="43" viewBox="0 0 43 43" fill="none" xmlns="http://www.w3.org/2000/svg">
<path d="M8.95841 32.25V19.7083H12.5417V32.25H8.95841ZM23.2917 32.25V25.0833H26.8751V32.25H23.2917ZM16.1251 32.25V14.3333H19.7084V32.25H16.1251ZM5.37508 39.4166C4.38966 39.4166 3.54639 39.0661 2.84525 38.3649C2.14291 37.6626 1.79175 36.8187 1.79175 35.8333V10.75C1.79175 9.76456 2.14291 8.92128 2.84525 8.22015C3.54639 7.51781 4.38966 7.16665 5.37508 7.16665H19.7084V10.75H5.37508V35.8333H30.4584V25.0833H34.0417V35.8333C34.0417 36.8187 33.6912 37.6626 32.99 38.3649C32.2877 39.0661 31.4438 39.4166 30.4584 39.4166H5.37508ZM32.2501 21.5C31.2945 21.5 30.3915 21.3656 29.5411 21.0969C28.6894 20.8281 27.9053 20.4399 27.1886 19.9323L26.5167 20.5594C26.1584 20.9177 25.7404 21.0969 25.2626 21.0969C24.7848 21.0969 24.3667 20.9177 24.0084 20.5594C23.6501 20.201 23.4709 19.783 23.4709 19.3052C23.4709 18.8274 23.6501 18.4094 24.0084 18.051L24.7251 17.3344C24.2772 16.6475 23.9266 15.901 23.6734 15.0948C23.419 14.2885 23.2917 13.4375 23.2917 12.5416C23.2917 9.97359 24.1804 7.83852 25.9577 6.13644C27.7339 4.43435 29.8313 3.58331 32.2501 3.58331H41.2084V12.5416C41.2084 14.9305 40.3574 17.0208 38.6553 18.8125C36.9532 20.6041 34.8181 21.5 32.2501 21.5ZM32.2501 17.9166C33.7431 17.9166 35.0122 17.3941 36.0574 16.3489C37.1025 15.3038 37.6251 14.0347 37.6251 12.5416V7.16665H32.2501C30.8167 7.16665 29.5626 7.67428 28.4876 8.68956C27.4126 9.70484 26.8751 10.9889 26.8751 12.5416C26.8751 12.9298 26.9121 13.3103 26.9862 13.6829C27.0614 14.0568 27.1737 14.408 27.323 14.7364L31.9813 10.0781C32.3397 9.71977 32.7577 9.5406 33.2355 9.5406C33.7133 9.5406 34.1313 9.71977 34.4897 10.0781C34.848 10.4364 35.0272 10.8623 35.0272 11.3556C35.0272 11.8477 34.848 12.2729 34.4897 12.6312L29.8313 17.2896C30.1897 17.4687 30.5707 17.618 30.9744 17.7375C31.3769 17.8569 31.8022 17.9166 32.2501 17.9166Z" fill="#39DA8A"/>
</svg>
